<?xml version="1.0" standalone="no"?>
<!DOCTYPE svg PUBLIC "-//W3C//DTD SVG 20010904//EN"
 "http://www.w3.org/TR/2001/REC-SVG-20010904/DTD/svg10.dtd">
<svg version="1.0" xmlns="http://www.w3.org/2000/svg"
 width="1200.000000pt" height="1200.000000pt" viewBox="0 0 1200.000000 1200.000000"
 preserveAspectRatio="xMidYMid meet">
<metadata>
Created by potrace 1.10, written by Peter Selinger 2001-2011
</metadata>
<g transform="translate(0.000000,1200.000000) scale(0.100000,-0.100000)"
fill="#000000" stroke="none">
<path d="M1812 10707 l-432 -251 0 -141 0 -141 85 -49 c47 -27 85 -52 85 -55
0 -4 -38 -28 -85 -55 l-85 -49 0 -142 0 -142 43 -24 c23 -14 119 -69 212 -123
290 -168 617 -355 620 -355 3 0 345 198 710 411 l150 87 3 144 2 143 -85 48
c-47 27 -85 51 -85 55 0 4 38 29 85 55 l85 48 0 142 0 142 -137 79 c-76 44
-190 109 -253 146 -273 158 -446 258 -465 268 -18 9 -84 -26 -453 -241z m570
-108 c68 -39 206 -119 307 -177 208 -120 200 -103 75 -173 l-71 -39 -219 127
c-121 69 -223 126 -229 126 -5 0 -104 -55 -220 -123 -115 -68 -215 -123 -221
-123 -16 0 -176 94 -170 100 13 14 603 352 613 353 7 0 68 -32 135 -71z m-33
-471 c50 -29 90 -56 88 -61 -1 -4 -43 -32 -93 -61 l-91 -54 -94 54 c-52 29
-95 57 -96 61 -3 9 165 112 183 112 7 1 53 -22 103 -51z m-290 -348 c149 -86
198 -110 210 -103 109 67 420 243 429 243 7 0 23 -6 35 -14 12 -8 45 -27 74
-43 28 -15 52 -32 52 -38 1 -5 -136 -90 -303 -188 l-305 -177 -193 112 c-341
197 -430 250 -426 253 2 2 41 26 88 53 l85 50 30 -17 c17 -10 117 -69 224
-131z"/>
</g>
</svg>
